<svg width="133" height="20" viewBox="0 0 133 20" fill="none" xmlns="http://www.w3.org/2000/svg"><path d="M3.03 13.83l-.04-2.7h.44l6.2-6.31h2.7l-6.6 6.68h-.2l-2.5 2.33zM.99 19V.1h2.18V19H1zm9.02 0l-5.54-7.02 1.55-1.51L12.78 19H10zm7.3-8.53V19h-2.17V4.82h2.1v2.21h.19c.33-.72.83-1.3 1.51-1.73a4.7 4.7 0 012.62-.67c.96 0 1.8.2 2.52.6.72.38 1.28.97 1.68 1.77.4.79.6 1.78.6 2.99V19H24.2v-8.86c0-1.12-.3-1.99-.87-2.6a3.08 3.08 0 00-2.38-.95c-.7 0-1.32.15-1.87.45-.54.3-.97.75-1.28 1.32a4.36 4.36 0 00-.47 2.1zm18.8 8.83c-1.28 0-2.4-.3-3.37-.92a6.21 6.21 0 01-2.26-2.56 8.65 8.65 0 01-.8-3.84c0-1.47.27-2.76.8-3.87a6.2 6.2 0 012.26-2.56c.96-.61 2.09-.92 3.37-.92 1.28 0 2.4.3 3.36.92.96.6 1.72 1.46 2.25 2.56.54 1.1.81 2.4.81 3.87 0 1.47-.27 2.75-.8 3.84a6.12 6.12 0 01-2.26 2.56c-.96.61-2.08.92-3.36.92zm0-1.96c.97 0 1.77-.25 2.4-.75a4.4 4.4 0 001.4-1.97c.3-.8.44-1.69.44-2.64a7.6 7.6 0 00-.45-2.65 4.47 4.47 0 00-1.4-1.98 3.71 3.71 0 00-2.4-.76c-.97 0-1.77.25-2.4.76-.62.5-1.09 1.16-1.39 1.98a7.6 7.6 0 00-.45 2.65c0 .95.15 1.83.45 2.64.3.82.77 1.47 1.4 1.97.62.5 1.42.75 2.4.75zM48.59 19L44.27 4.82h2.29l3.06 10.86h.15L52.8 4.82h2.33l2.99 10.82h.15l3.06-10.82h2.3L59.3 19h-2.14l-3.1-10.9h-.23L50.73 19H48.6zm25.22 0V4.82h2.11v2.21h.18c.3-.75.78-1.34 1.44-1.76a4.28 4.28 0 012.37-.64c.93 0 1.71.22 2.33.64.63.42 1.12 1 1.47 1.76h.15c.36-.73.9-1.31 1.63-1.74.73-.44 1.6-.66 2.62-.66 1.27 0 2.3.4 3.1 1.2.82.78 1.22 2.01 1.22 3.68V19h-2.18V9.5c0-1.04-.29-1.79-.86-2.24a3.18 3.18 0 00-2.02-.67c-1 0-1.77.3-2.32.9-.55.6-.82 1.36-.82 2.28V19H82V9.29c0-.8-.26-1.46-.78-1.95-.52-.5-1.2-.75-2.02-.75-.57 0-1.1.15-1.6.45-.48.3-.87.72-1.17 1.26a3.7 3.7 0 00-.45 1.84V19h-2.18zm28.36.3c-1.28 0-2.4-.3-3.37-.92a6.21 6.21 0 01-2.25-2.56 8.65 8.65 0 01-.8-3.84c0-1.47.27-2.76.8-3.87a6.2 6.2 0 012.25-2.56c.97-.61 2.1-.92 3.37-.92 1.28 0 2.4.3 3.36.92a6.1 6.1 0 012.26 2.56c.54 1.1.81 2.4.81 3.87 0 1.47-.27 2.75-.81 3.84a6.12 6.12 0 01-2.26 2.56c-.96.61-2.08.92-3.36.92zm0-1.96c.98 0 1.78-.25 2.4-.75a4.4 4.4 0 001.4-1.97c.3-.8.45-1.69.45-2.64a7.6 7.6 0 00-.45-2.65 4.46 4.46 0 00-1.4-1.98 3.71 3.71 0 00-2.4-.76c-.97 0-1.77.25-2.4.76-.62.5-1.09 1.16-1.4 1.98a7.6 7.6 0 00-.44 2.65c0 .95.15 1.83.45 2.64.3.82.77 1.47 1.4 1.97.62.5 1.42.75 2.4.75zm9.76 1.66V4.82h2.1v2.14h.15a3.4 3.4 0 011.4-1.7 4.13 4.13 0 012.3-.66 24.16 24.16 0 011.14.03v2.22a6.47 6.47 0 00-1.33-.15c-.7 0-1.3.15-1.85.44a3.18 3.18 0 00-1.74 2.89V19h-2.17zm15.18.3c-1.36 0-2.54-.3-3.53-.9a6.08 6.08 0 01-2.28-2.56 8.7 8.7 0 01-.8-3.82c0-1.45.27-2.73.8-3.84a6 6 0 015.6-3.55c.73 0 1.46.13 2.18.37a5.42 5.42 0 013.38 3.38c.35.9.53 2.02.53 3.34v.93h-10.94v-1.89h8.72c0-.8-.16-1.51-.48-2.14a3.62 3.62 0 00-3.4-2.03c-.86 0-1.62.22-2.25.65-.63.42-1.11.98-1.45 1.66-.34.68-.5 1.41-.5 2.2v1.25c0 1.07.18 1.98.55 2.73a4 4 0 001.56 1.69c.66.38 1.43.57 2.31.57.58 0 1.1-.08 1.55-.24.47-.17.88-.41 1.22-.74.33-.33.6-.75.78-1.24l2.1.6c-.22.7-.59 1.33-1.11 1.88-.53.53-1.17.95-1.94 1.25a7.2 7.2 0 01-2.6.45z" fill="#fff"/></svg>