<svg width="93" height="21" viewBox="0 0 93 21" fill="none" xmlns="http://www.w3.org/2000/svg"><path d="M.29 20V1.1h2.29V9.5h10.08V1.1h2.3V20h-2.3v-8.46H2.58V20H.29zm18.95 0V5.82h2.18V20h-2.18zm1.1-16.55c-.42 0-.78-.14-1.09-.43a1.4 1.4 0 01-.45-1.04c0-.4.15-.76.45-1.05.3-.29.67-.43 1.1-.43.42 0 .79.14 1.09.43.3.3.46.64.46 1.05 0 .4-.15.75-.46 1.04-.3.29-.67.43-1.1.43zM25.42 20V5.82h2.1v2.14h.15a3.4 3.4 0 011.4-1.7 4.13 4.13 0 012.3-.66 24.17 24.17 0 011.14.03v2.22a6.47 6.47 0 00-1.33-.15c-.69 0-1.3.15-1.84.44a3.18 3.18 0 00-1.74 2.89V20H25.4zm15.19.3c-1.37 0-2.55-.3-3.54-.9a6.07 6.07 0 01-2.28-2.56 8.69 8.69 0 01-.8-3.82c0-1.45.27-2.73.8-3.84a6 6 0 015.6-3.55c.74 0 1.46.13 2.19.37a5.42 5.42 0 013.37 3.38c.36.9.53 2.02.53 3.34v.93H35.54v-1.89h8.71c0-.8-.16-1.51-.48-2.14a3.62 3.62 0 00-3.4-2.03c-.86 0-1.61.22-2.25.65-.62.42-1.1.98-1.45 1.66-.33.68-.5 1.41-.5 2.2v1.25c0 1.07.18 1.98.55 2.73a4 4 0 001.56 1.69c.67.38 1.44.57 2.32.57.57 0 1.09-.08 1.55-.24.47-.17.87-.41 1.2-.74.35-.33.6-.75.8-1.24l2.1.6c-.22.7-.6 1.33-1.12 1.88-.52.53-1.17.95-1.94 1.25a7.2 7.2 0 01-2.6.45zM57.4 1.1h2.73l6.42 15.69h.22l6.43-15.7h2.73V20H73.8V5.63h-.18L67.7 20h-2.07L59.72 5.63h-.18V20h-2.15V1.1zm28.77 19.2c-1.36 0-2.54-.3-3.53-.9a6.07 6.07 0 01-2.28-2.56 8.69 8.69 0 01-.8-3.82c0-1.45.27-2.73.8-3.84a6 6 0 015.6-3.55c.73 0 1.46.13 2.18.37a5.42 5.42 0 013.38 3.38c.35.9.53 2.02.53 3.34v.93H81.12v-1.89h8.71c0-.8-.16-1.51-.48-2.14a3.62 3.62 0 00-3.4-2.03c-.86 0-1.62.22-2.25.65-.63.42-1.11.98-1.45 1.66-.34.68-.5 1.41-.5 2.2v1.25c0 1.07.18 1.98.55 2.73a4 4 0 001.56 1.69c.66.38 1.43.57 2.31.57.58 0 1.1-.08 1.56-.24.46-.17.87-.41 1.2-.74.34-.33.6-.75.79-1.24l2.1.6c-.22.7-.59 1.33-1.11 1.88-.53.53-1.17.95-1.94 1.25a7.2 7.2 0 01-2.6.45z" fill="#fff"/></svg>