<svg width="508" height="37" viewBox="0 0 508 37" fill="none" xmlns="http://www.w3.org/2000/svg"><path d="M24.18 12.38a7.65 7.65 0 00-1-2.2 6.8 6.8 0 00-3.7-2.68 8.93 8.93 0 00-2.61-.36c-1.78 0-3.35.45-4.7 1.33a8.72 8.72 0 00-3.14 3.87 15.12 15.12 0 00-1.13 6.17c0 2.43.37 4.5 1.11 6.2.74 1.71 1.79 3.01 3.14 3.9a8.54 8.54 0 004.79 1.34c1.67 0 3.1-.3 4.28-.89 1.19-.6 2.1-1.45 2.72-2.54.64-1.09.96-2.38.96-3.87l1.5.23h-9v-5.56H32v4.4c0 3.06-.64 5.7-1.94 7.9a13.24 13.24 0 01-5.35 5.08 16.68 16.68 0 01-7.8 1.78c-3.28 0-6.15-.72-8.63-2.17a15.02 15.02 0 01-5.8-6.19 20.68 20.68 0 01-2.06-9.54c0-2.83.41-5.35 1.23-7.57a16.17 16.17 0 013.47-5.66 15.03 15.03 0 015.2-3.53c1.98-.8 4.12-1.2 6.43-1.2 1.98 0 3.82.28 5.52.86 1.7.57 3.22 1.38 4.54 2.42a13.1 13.1 0 013.25 3.74 12.68 12.68 0 011.62 4.74h-7.5zm45.45 6.17c0 3.8-.72 7.04-2.17 9.71a15.01 15.01 0 01-5.86 6.12 16.57 16.57 0 01-8.32 2.1c-3.1 0-5.88-.7-8.35-2.12a15.05 15.05 0 01-5.85-6.12c-1.43-2.67-2.14-5.9-2.14-9.7 0-3.8.71-7.04 2.14-9.71a14.93 14.93 0 015.85-6.1A16.53 16.53 0 0153.28.6c3.08 0 5.85.7 8.32 2.12a14.9 14.9 0 015.86 6.1c1.45 2.67 2.17 5.9 2.17 9.72zm-7.48 0c0-2.47-.37-4.55-1.11-6.24a8.44 8.44 0 00-3.09-3.86 8.3 8.3 0 00-4.67-1.3 8.3 8.3 0 00-4.67 1.3 8.55 8.55 0 00-3.1 3.86c-.73 1.69-1.1 3.77-1.1 6.24 0 2.46.37 4.54 1.1 6.23a8.55 8.55 0 003.1 3.86 8.3 8.3 0 004.67 1.3 8.3 8.3 0 004.67-1.3 8.44 8.44 0 003.09-3.86 15.6 15.6 0 001.1-6.23zM75.1 1.09h9.1l9.61 23.46h.41l9.61-23.46h9.1V36h-7.15V13.28h-.3l-9.03 22.55h-4.87l-9.03-22.64h-.3V36H75.1V1.1zM125.04 36h-7.91l12.05-34.9h9.5L150.73 36h-7.9l-8.75-26.93h-.27L125.04 36zm-.5-13.72h18.68v5.76h-18.68v-5.76zm24.79-15.1V1.09H178v6.09h-10.69V36h-7.3V7.18h-10.68zM182.73 36V1.1h7.37v14.4h14.99V1.1h7.36V36h-7.36V21.58H190.1V36h-7.38zm33.76-34.9h8.27l7.96 15.03h.34l7.96-15.04h8.26l-12.73 22.57V36h-7.33V23.66L216.5 1.09zm61.91 0h7.3v24.33c0 2.25-.5 4.2-1.52 5.87-1 1.65-2.4 2.93-4.18 3.83-1.78.9-3.85 1.35-6.22 1.35-2.1 0-4-.37-5.72-1.11a9.15 9.15 0 01-4.06-3.41c-1-1.53-1.5-3.46-1.48-5.78h7.34c.02.92.21 1.71.56 2.37.37.65.86 1.15 1.49 1.5a4.7 4.7 0 002.25.51c.9 0 1.67-.2 2.3-.58.64-.4 1.12-.97 1.45-1.74.33-.76.5-1.7.5-2.8V1.08zM291.8 36V1.1h23.52v6.08h-16.14v8.31h14.93v6.09h-14.93v8.33h16.21V36H291.8zm27.34-34.9h8.27l7.96 15.03h.34l7.96-15.04h8.27l-12.73 22.57V36h-7.33V23.66L319.14 1.09zm55.77 10.03a4.31 4.31 0 00-1.76-3.2 6.96 6.96 0 00-4.2-1.15c-1.21 0-2.23.17-3.06.52a4.3 4.3 0 00-1.9 1.38c-.44.59-.66 1.26-.66 2-.02.63.11 1.18.4 1.64.3.47.7.87 1.2 1.21.52.33 1.11.62 1.78.87.67.24 1.39.45 2.15.62l3.13.75c1.53.34 2.93.8 4.2 1.36 1.27.57 2.37 1.27 3.3 2.1a8.7 8.7 0 012.17 2.93c.52 1.12.79 2.41.8 3.87a9.65 9.65 0 01-1.64 5.56 10.39 10.39 0 01-4.63 3.63 18.62 18.62 0 01-7.28 1.27 19.2 19.2 0 01-7.37-1.3 10.8 10.8 0 01-4.87-3.83 11.46 11.46 0 01-1.82-6.32h7.14a5.35 5.35 0 001 2.93 5.6 5.6 0 002.4 1.76c1.02.38 2.16.58 3.43.58 1.25 0 2.34-.18 3.26-.55a5 5 0 002.16-1.52c.52-.64.77-1.39.77-2.23a2.9 2.9 0 00-.7-1.98 5.29 5.29 0 00-2-1.36c-.88-.37-1.96-.72-3.23-1.02l-3.8-.96c-2.94-.71-5.27-1.83-6.97-3.35-1.7-1.53-2.55-3.58-2.54-6.16a9.15 9.15 0 011.69-5.54 11.38 11.38 0 014.72-3.7c2-.88 4.27-1.33 6.81-1.33 2.6 0 4.86.45 6.79 1.33 1.94.89 3.45 2.12 4.53 3.7a9.78 9.78 0 011.67 5.5h-7.07zM387.42 36V1.1h7.38v14.4h14.99V1.1h7.36V36h-7.36V21.58H394.8V36h-7.38zm35.82 0V1.1H437c2.64 0 4.89.46 6.75 1.4a9.8 9.8 0 014.28 3.98c.99 1.7 1.48 3.7 1.48 6.01 0 2.32-.5 4.32-1.5 5.99a9.73 9.73 0 01-4.34 3.82 16.03 16.03 0 01-6.86 1.32h-9.22V17.7h8.03c1.4 0 2.58-.19 3.51-.58a4.17 4.17 0 002.08-1.73c.47-.78.7-1.74.7-2.89 0-1.15-.23-2.13-.7-2.93a4.28 4.28 0 00-2.1-1.8 8.6 8.6 0 00-3.52-.63h-4.98V36h-7.38zm18.85-15.89L450.77 36h-8.15l-8.5-15.89h7.97zM454.74 36V1.1h23.52v6.08h-16.14v8.31h14.93v6.09h-14.93v8.33h16.2V36h-23.58zm29.39 0V1.1h23.52v6.08h-16.14v8.31h14.93v6.09h-14.93v8.33h16.2V36h-23.58z" fill="#BA6E28"/></svg>