<svg width="361" height="73" viewBox="0 0 361 73" fill="none" xmlns="http://www.w3.org/2000/svg"><path d="M4.83 1.82V28H.88V1.82h3.95zM25.5 28.43a8.02 8.02 0 01-3.37-.69c-1-.46-1.8-1.14-2.4-2.03a5.83 5.83 0 01-.86-3.26c0-1.1.21-2.02.64-2.73.43-.72 1-1.29 1.72-1.7a9.01 9.01 0 012.43-.95c.9-.21 1.81-.38 2.74-.49l2.86-.33a4.2 4.2 0 001.6-.45c.33-.2.5-.53.5-1v-.08c0-1.12-.32-1.98-.95-2.6-.62-.61-1.55-.92-2.78-.92-1.29 0-2.3.29-3.05.86a4.58 4.58 0 00-1.52 1.88l-3.59-.82a6.91 6.91 0 014.72-4.5 11.13 11.13 0 015.88-.23 7.3 7.3 0 012.48 1 5.52 5.52 0 011.9 2.08c.5.9.74 2.06.74 3.49V28h-3.73v-2.68h-.15a5.9 5.9 0 01-3.02 2.65c-.77.3-1.7.46-2.79.46zm.84-3.06a5.5 5.5 0 002.7-.63 4.39 4.39 0 002.33-3.82v-2.53a2 2 0 01-.79.38c-.38.11-.82.2-1.32.3a151.44 151.44 0 01-2.62.36c-.74.1-1.42.26-2.03.48-.6.22-1.1.54-1.46.96-.36.4-.53.95-.53 1.63 0 .95.34 1.66 1.04 2.15.7.48 1.6.72 2.68.72zM40.3 28V8.36h3.67v3.2h.24a5.07 5.07 0 012-2.53 5.92 5.92 0 013.34-.92c1.31 0 2.41.3 3.3.92a5.4 5.4 0 011.98 2.53h.2a5.53 5.53 0 012.24-2.5 6.83 6.83 0 013.66-.95c1.78 0 3.23.56 4.36 1.67 1.13 1.12 1.7 2.8 1.7 5.05V28h-3.82V15.19c0-1.33-.37-2.3-1.09-2.89-.72-.6-1.59-.9-2.6-.9a3.7 3.7 0 00-2.9 1.16 4.18 4.18 0 00-1.03 2.92V28h-3.81V14.95c0-1.07-.33-1.92-1-2.57a3.56 3.56 0 00-2.6-.97c-.72 0-1.39.19-2 .57-.6.38-1.1.9-1.47 1.57a4.82 4.82 0 00-.55 2.34V28H40.3zm48.7.38c-1.6 0-3-.4-4.25-1.21a8.28 8.28 0 01-2.92-3.5 12.97 12.97 0 01-1.05-5.45c0-2.12.36-3.94 1.06-5.45a7.65 7.65 0 017.17-4.67c1.23 0 2.2.21 2.95.62.75.4 1.33.87 1.74 1.4.41.54.74 1.02.97 1.43h.23V1.82h3.82V28h-3.73v-3.06h-.32c-.23.42-.57.9-1 1.44a5.54 5.54 0 01-4.68 2zm.83-3.26c1.1 0 2.03-.29 2.8-.87a5.38 5.38 0 001.73-2.44c.4-1.04.6-2.25.6-3.63 0-1.36-.2-2.55-.59-3.58a5.26 5.26 0 00-1.72-2.39 4.54 4.54 0 00-2.82-.85c-1.15 0-2.1.3-2.87.89a5.47 5.47 0 00-1.74 2.44 9.96 9.96 0 00-.58 3.5c0 1.3.2 2.48.6 3.53.38 1.05.96 1.88 1.73 2.5.78.6 1.73.9 2.86.9zm22.8 3.28c-1.93 0-3.6-.42-4.99-1.24a8.4 8.4 0 01-3.22-3.52 11.9 11.9 0 01-1.13-5.33c0-2.01.38-3.78 1.13-5.32a8.73 8.73 0 013.17-3.6 8.77 8.77 0 014.78-1.28c1.1 0 2.18.18 3.22.55a7.8 7.8 0 014.76 4.78c.47 1.24.71 2.76.71 4.54v1.35h-15.6v-2.86h11.86c0-1-.2-1.9-.62-2.67a4.64 4.64 0 00-4.3-2.53c-1.08 0-2.02.26-2.82.79-.79.52-1.4 1.2-1.84 2.04a5.9 5.9 0 00-.64 2.73v2.23c0 1.32.23 2.43.7 3.35a5 5 0 001.95 2.11 5.8 5.8 0 002.93.72c.72 0 1.38-.1 1.98-.3a4.1 4.1 0 002.54-2.5l3.62.65c-.29 1.07-.81 2-1.56 2.8a7.55 7.55 0 01-2.8 1.85c-1.12.44-2.39.66-3.82.66zm27.39-15.24l-3.47.61a4.11 4.11 0 00-.69-1.26c-.3-.4-.72-.73-1.25-.99a4.54 4.54 0 00-1.98-.38c-1.08 0-1.99.24-2.71.73-.72.47-1.09 1.1-1.09 1.85 0 .66.24 1.18.73 1.59.49.4 1.27.72 2.35.98l3.12.72c1.8.41 3.16 1.06 4.04 1.93.89.87 1.33 2 1.33 3.38 0 1.18-.34 2.23-1.02 3.15a6.7 6.7 0 01-2.83 2.15c-1.2.52-2.6.78-4.18.78-2.2 0-3.99-.47-5.38-1.41a5.94 5.94 0 01-2.55-4.03l3.69-.56c.23.96.7 1.7 1.42 2.19a4.9 4.9 0 002.8.73c1.25 0 2.25-.26 3-.78.75-.53 1.13-1.18 1.13-1.93a2 2 0 00-.7-1.55 4.52 4.52 0 00-2.08-.95l-3.32-.73c-1.83-.41-3.19-1.08-4.07-2a4.82 4.82 0 01-1.3-3.46c0-1.15.32-2.17.97-3.04a6.36 6.36 0 012.69-2.03 9.8 9.8 0 013.92-.74c2.12 0 3.8.46 5.01 1.38a6.42 6.42 0 012.42 3.67zM144.6 28V8.36h3.83V28h-3.83zm1.94-22.67c-.67 0-1.24-.22-1.72-.66-.47-.45-.7-.99-.7-1.61 0-.63.23-1.17.7-1.61a2.4 2.4 0 011.72-.68c.66 0 1.23.23 1.7.68.47.44.71.98.71 1.6 0 .63-.24 1.17-.71 1.62-.47.44-1.04.66-1.7.66zm15.26 30.44c-1.56 0-2.9-.2-4.02-.61a7.8 7.8 0 01-2.74-1.62 6.8 6.8 0 01-1.58-2.22l3.28-1.35c.23.37.54.77.92 1.19.4.42.92.79 1.59 1.08.67.3 1.53.45 2.6.45 1.44 0 2.64-.35 3.58-1.06.95-.7 1.42-1.81 1.42-3.35v-3.86h-.24c-.23.42-.56.88-1 1.4-.42.5-1.01.95-1.76 1.32-.75.38-1.73.57-2.93.57a8.18 8.18 0 01-4.2-1.1 7.7 7.7 0 01-2.93-3.23 11.73 11.73 0 01-1.08-5.27c0-2.1.36-3.88 1.06-5.37a8.1 8.1 0 012.94-3.43 7.65 7.65 0 014.24-1.2c1.22 0 2.2.2 2.95.61.75.4 1.33.87 1.75 1.4.43.54.75 1.02.98 1.43h.29V8.36h3.74v20.07a6.9 6.9 0 01-1.17 4.16 6.92 6.92 0 01-3.19 2.4c-1.33.52-2.83.78-4.5.78zm-.04-11.23c1.1 0 2.03-.26 2.8-.77a4.78 4.78 0 001.73-2.23c.4-.97.6-2.13.6-3.49 0-1.32-.2-2.48-.59-3.49-.39-1-.97-1.79-1.72-2.35a4.54 4.54 0 00-2.82-.85c-1.15 0-2.1.3-2.87.89a5.4 5.4 0 00-1.74 2.4 9.56 9.56 0 00-.58 3.4c0 1.3.2 2.42.6 3.4.38.96.96 1.72 1.73 2.27.78.54 1.73.82 2.86.82zm17.85-8.2V28h-3.82V8.36h3.67v3.2h.24a5.61 5.61 0 012.12-2.5c.97-.64 2.2-.95 3.67-.95 1.34 0 2.51.28 3.52.84 1 .56 1.78 1.38 2.34 2.48a9 9 0 01.83 4.08V28h-3.83V15.97c0-1.42-.37-2.54-1.1-3.34a3.94 3.94 0 00-3.06-1.21c-.89 0-1.68.2-2.37.57-.68.39-1.22.95-1.62 1.7-.4.72-.59 1.61-.59 2.65zm32.94 12.1a8.01 8.01 0 01-3.38-.7c-1-.46-1.8-1.14-2.39-2.03a5.83 5.83 0 01-.87-3.26c0-1.1.21-2.02.64-2.73.43-.72 1-1.29 1.73-1.7a9 9 0 012.43-.95c.89-.21 1.8-.38 2.73-.49l2.86-.33a4.2 4.2 0 001.6-.45c.34-.2.5-.53.5-1v-.08c0-1.12-.31-1.98-.94-2.6-.63-.61-1.56-.92-2.8-.92a4.58 4.58 0 00-4.56 2.74l-3.59-.82a6.91 6.91 0 014.72-4.5 11.13 11.13 0 015.88-.23 7.3 7.3 0 012.48 1 5.53 5.53 0 011.9 2.08c.5.9.75 2.06.75 3.49V28h-3.74v-2.68h-.15c-.25.49-.62.98-1.11 1.45-.5.48-1.13.88-1.9 1.2a7.4 7.4 0 01-2.8.46zm.83-3.07a5.5 5.5 0 002.7-.63 4.38 4.38 0 002.33-3.82v-2.53a2 2 0 01-.79.38c-.38.11-.82.2-1.32.3a153.32 153.32 0 01-2.62.36c-.74.1-1.42.26-2.03.48-.6.22-1.09.54-1.46.96-.35.4-.53.95-.53 1.63 0 .95.35 1.66 1.05 2.15.7.48 1.58.72 2.67.72zm17.77-9.03V28h-3.82V8.36H231v3.2h.24a5.61 5.61 0 012.12-2.5 6.6 6.6 0 013.67-.95c1.34 0 2.51.28 3.52.84 1 .56 1.78 1.38 2.34 2.48a9 9 0 01.83 4.08V28h-3.83V15.97c0-1.42-.37-2.54-1.1-3.34a3.94 3.94 0 00-3.06-1.21c-.89 0-1.68.2-2.37.57-.68.39-1.22.95-1.62 1.7-.4.72-.59 1.61-.59 2.65zm25.04 12.04c-1.58 0-3-.4-4.24-1.21a8.27 8.27 0 01-2.91-3.5 12.97 12.97 0 01-1.05-5.45c0-2.12.35-3.94 1.06-5.45a7.65 7.65 0 017.17-4.67c1.22 0 2.2.21 2.94.62.75.4 1.33.87 1.74 1.4.42.54.74 1.02.97 1.43h.23V1.82h3.82V28h-3.73v-3.06h-.32c-.23.42-.56.9-1 1.44a5.54 5.54 0 01-4.68 2zm.85-3.26c1.1 0 2.03-.29 2.78-.87a5.38 5.38 0 001.74-2.44c.4-1.04.6-2.25.6-3.63 0-1.36-.2-2.55-.58-3.58a5.26 5.26 0 00-1.73-2.39 4.54 4.54 0 00-2.81-.85c-1.15 0-2.11.3-2.88.89a5.47 5.47 0 00-1.74 2.44 9.95 9.95 0 00-.57 3.5c0 1.3.2 2.48.59 3.53.39 1.05.97 1.88 1.73 2.5.78.6 1.73.9 2.87.9zM281.2 28V1.82h9.59c1.86 0 3.4.3 4.62.92a6.3 6.3 0 013.64 5.96c0 1.09-.2 2-.6 2.76-.4.74-.94 1.34-1.61 1.79-.67.44-1.4.76-2.2.97v.25c.87.05 1.72.33 2.54.85a6.01 6.01 0 012.07 2.18c.55.95.82 2.1.82 3.46 0 1.33-.31 2.54-.94 3.6a6.45 6.45 0 01-2.9 2.52c-1.3.61-2.96.92-5 .92h-10.03zm3.95-3.39h5.7c1.9 0 3.25-.36 4.07-1.1a3.54 3.54 0 001.23-2.75 4.32 4.32 0 00-2.42-3.92 5.74 5.74 0 00-2.74-.61h-5.84v8.38zm0-11.47h5.3c.88 0 1.68-.17 2.39-.5a4.18 4.18 0 001.7-1.44 3.8 3.8 0 00.63-2.2c0-1.08-.37-1.99-1.13-2.72-.76-.73-1.92-1.1-3.5-1.1h-5.39v7.96zm31.74 6.72V8.36h3.83V28h-3.75v-3.4h-.2a6.12 6.12 0 01-2.18 2.62 6.3 6.3 0 01-3.7 1.04 5.84 5.84 0 01-5.63-3.32 9.13 9.13 0 01-.81-4.09V8.36h3.82V20.4c0 1.34.37 2.4 1.12 3.2.74.8 1.7 1.19 2.88 1.19a4.69 4.69 0 003.92-2.16c.47-.73.7-1.65.7-2.76zm8.97 8.14V8.36h3.82V28h-3.82zm1.93-22.67c-.66 0-1.24-.22-1.71-.66-.47-.45-.7-.99-.7-1.61 0-.63.23-1.17.7-1.61a2.4 2.4 0 011.71-.68c.67 0 1.23.23 1.7.68a2.14 2.14 0 010 3.22c-.47.44-1.03.66-1.7.66zm10.86-3.51V28h-3.83V1.82h3.83zm12.5 26.56c-1.6 0-3-.4-4.25-1.21a8.27 8.27 0 01-2.92-3.5 12.97 12.97 0 01-1.05-5.45c0-2.12.36-3.94 1.06-5.45a7.65 7.65 0 017.17-4.67c1.22 0 2.2.21 2.95.62.75.4 1.33.87 1.74 1.4.41.54.74 1.02.97 1.43h.23V1.82h3.82V28h-3.73v-3.06h-.32c-.23.42-.56.9-1 1.44a5.54 5.54 0 01-4.68 2zm.83-3.26c1.1 0 2.03-.29 2.8-.87a5.38 5.38 0 001.73-2.44c.4-1.04.6-2.25.6-3.63 0-1.36-.2-2.55-.59-3.58a5.26 5.26 0 00-1.72-2.39 4.54 4.54 0 00-2.81-.85c-1.16 0-2.12.3-2.88.89a5.47 5.47 0 00-1.74 2.44 9.95 9.95 0 00-.58 3.5c0 1.3.2 2.48.6 3.53.38 1.05.96 1.88 1.73 2.5.78.6 1.73.9 2.87.9zM17.72 45.82h3.97v17.22c0 1.83-.43 3.45-1.3 4.87a9.03 9.03 0 01-3.63 3.32c-1.56.8-3.38 1.2-5.48 1.2-2.09 0-3.91-.4-5.47-1.2a9.03 9.03 0 01-3.63-3.32 9.18 9.18 0 01-1.3-4.87V45.82h3.96v16.9c0 1.18.26 2.24.78 3.16a5.66 5.66 0 002.23 2.17c.97.52 2.1.78 3.43.78s2.48-.26 3.44-.78a5.47 5.47 0 002.22-2.17 6.3 6.3 0 00.78-3.16v-16.9zm24.12 11.34l-3.47.61a4.1 4.1 0 00-.69-1.26c-.3-.4-.72-.73-1.25-.99a4.54 4.54 0 00-1.98-.38c-1.08 0-1.99.24-2.71.73-.73.47-1.09 1.1-1.09 1.85 0 .66.24 1.18.73 1.59.49.4 1.27.72 2.35.98l3.12.72c1.8.41 3.15 1.06 4.04 1.93.89.87 1.33 2 1.33 3.38 0 1.18-.34 2.23-1.02 3.15a6.7 6.7 0 01-2.83 2.15c-1.2.52-2.6.78-4.18.78-2.2 0-4-.47-5.38-1.41a5.95 5.95 0 01-2.56-4.03l3.7-.56c.23.96.7 1.7 1.42 2.19a4.9 4.9 0 002.8.73c1.25 0 2.25-.26 3-.78.75-.53 1.13-1.18 1.13-1.93a2 2 0 00-.7-1.55 4.52 4.52 0 00-2.08-.95l-3.32-.73c-1.83-.41-3.19-1.08-4.07-2a4.82 4.82 0 01-1.3-3.46c0-1.15.32-2.17.97-3.04a6.36 6.36 0 012.68-2.03 9.8 9.8 0 013.93-.74c2.12 0 3.8.46 5.01 1.38a6.42 6.42 0 012.42 3.67zM54.88 72.4c-1.94 0-3.6-.42-5-1.24a8.41 8.41 0 01-3.22-3.52 11.9 11.9 0 01-1.13-5.33c0-2.01.38-3.78 1.13-5.32a8.74 8.74 0 013.17-3.6 8.77 8.77 0 014.78-1.28c1.1 0 2.18.18 3.22.55a7.8 7.8 0 014.76 4.78c.47 1.24.71 2.76.71 4.54v1.35H47.7v-2.86h11.86c0-1-.2-1.9-.62-2.67a4.64 4.64 0 00-4.3-2.53 5 5 0 00-2.82.79c-.8.52-1.4 1.2-1.84 2.04a5.9 5.9 0 00-.64 2.73v2.23c0 1.32.23 2.43.7 3.35a5 5 0 001.95 2.11 5.8 5.8 0 002.92.72c.73 0 1.39-.1 1.99-.3a4.11 4.11 0 002.54-2.5l3.62.65c-.3 1.07-.81 2-1.56 2.8a7.56 7.56 0 01-2.8 1.85c-1.12.44-2.4.66-3.82.66zm12.66-.4V52.36h3.7v3.12h.2a4.75 4.75 0 011.9-2.49 5.41 5.41 0 013.09-.92 16.28 16.28 0 011.62.09v3.66a6.87 6.87 0 00-.82-.15c-.39-.05-.78-.08-1.17-.08-.9 0-1.71.19-2.42.57a4.27 4.27 0 00-2.28 3.85V72h-3.82zm27.6-26.18V72H91.2V45.82h3.95zm9.27 14.52V72h-3.82V52.36h3.67v3.2h.24a5.61 5.61 0 012.12-2.5c.97-.64 2.2-.95 3.67-.95 1.34 0 2.51.28 3.52.84 1 .56 1.78 1.38 2.34 2.48a9 9 0 01.83 4.08V72h-3.82V59.97c0-1.42-.38-2.54-1.12-3.34a3.94 3.94 0 00-3.05-1.21c-.89 0-1.68.2-2.37.57-.68.39-1.22.95-1.62 1.7-.4.72-.59 1.61-.59 2.65zm26.86-7.98v3.07h-10.73v-3.07h10.73zm-7.85-4.7h3.82v18.57c0 .75.12 1.3.34 1.68.22.37.5.62.85.75.36.13.75.2 1.17.2.3 0 .57-.03.8-.07l.54-.1.69 3.16a7.5 7.5 0 01-2.48.4c-1 .02-1.94-.16-2.81-.53a4.83 4.83 0 01-2.11-1.74 5.1 5.1 0 01-.8-2.95V47.66zm20.33 24.74c-1.93 0-3.6-.42-5-1.24a8.42 8.42 0 01-3.22-3.52 11.9 11.9 0 01-1.12-5.33c0-2.01.37-3.78 1.12-5.32a8.74 8.74 0 013.17-3.6 8.76 8.76 0 014.78-1.28c1.11 0 2.19.18 3.23.55a7.8 7.8 0 014.75 4.78c.48 1.24.72 2.76.72 4.54v1.35h-15.61v-2.86h11.86c0-1-.2-1.9-.61-2.67a4.64 4.64 0 00-4.31-2.53 5 5 0 00-2.81.79c-.8.52-1.41 1.2-1.84 2.04a5.9 5.9 0 00-.64 2.73v2.23c0 1.32.23 2.43.69 3.35a5 5 0 001.95 2.11 5.8 5.8 0 002.93.72c.72 0 1.39-.1 1.98-.3a4.1 4.1 0 002.54-2.5l3.62.65c-.29 1.07-.8 2-1.56 2.8a7.56 7.56 0 01-2.8 1.85c-1.11.44-2.39.66-3.82.66zm12.67-.4V52.36h3.7v3.12h.2A4.75 4.75 0 01162.2 53a5.42 5.42 0 013.1-.92 16.28 16.28 0 011.62.09v3.66a6.89 6.89 0 00-.82-.15c-.4-.05-.79-.08-1.18-.08-.9 0-1.7.19-2.42.57a4.27 4.27 0 00-2.27 3.85V72h-3.82zm24.32-19.64v3.07h-11.1v-3.07h11.1zM172.68 72V50.09c0-1.23.27-2.25.81-3.06a4.94 4.94 0 012.13-1.83c.9-.4 1.85-.6 2.9-.6a8.73 8.73 0 013.18.52l-.9 3.09-.69-.18a3.94 3.94 0 00-1.02-.12c-.93 0-1.6.23-2 .7-.39.46-.58 1.12-.58 1.99V72h-3.82zm17.12.43a8.01 8.01 0 01-3.38-.69c-1-.46-1.8-1.14-2.39-2.03a5.83 5.83 0 01-.87-3.26c0-1.1.22-2.02.64-2.73.43-.72 1-1.29 1.73-1.7a9 9 0 012.43-.95c.9-.21 1.8-.38 2.73-.49l2.87-.33a4.2 4.2 0 001.6-.45c.33-.2.5-.53.5-1v-.08c0-1.12-.32-1.98-.95-2.6-.62-.61-1.55-.92-2.79-.92a4.58 4.58 0 00-4.56 2.74l-3.6-.82a6.91 6.91 0 014.72-4.5 11.13 11.13 0 015.88-.23 7.3 7.3 0 012.48 1 5.53 5.53 0 011.9 2.08c.5.9.75 2.06.75 3.49V72h-3.73v-2.68h-.16c-.24.49-.61.98-1.1 1.45a5.9 5.9 0 01-1.91 1.2 7.4 7.4 0 01-2.79.46zm.83-3.06a5.5 5.5 0 002.71-.63 4.4 4.4 0 002.33-3.82v-2.53a2 2 0 01-.8.38c-.38.11-.82.2-1.31.3a153.32 153.32 0 01-2.62.36c-.74.1-1.42.26-2.03.48-.61.22-1.1.54-1.46.96-.36.4-.54.95-.54 1.63 0 .95.35 1.66 1.05 2.15.7.48 1.59.72 2.67.72zm22.22 3.03c-1.9 0-3.53-.43-4.9-1.3a8.55 8.55 0 01-3.15-3.59 11.96 11.96 0 01-1.1-5.24c0-2 .37-3.75 1.12-5.28a8.62 8.62 0 013.18-3.6 8.84 8.84 0 014.81-1.28c1.5 0 2.82.27 4 .83a6.94 6.94 0 014.12 5.77h-3.73a4.45 4.45 0 00-1.4-2.38c-.73-.67-1.7-1-2.92-1-1.07 0-2 .28-2.8.84a5.43 5.43 0 00-1.86 2.38 9.09 9.09 0 00-.66 3.63c0 1.43.22 2.67.65 3.7a5.5 5.5 0 001.84 2.43c.8.57 1.75.85 2.83.85.72 0 1.38-.13 1.97-.4.6-.27 1.1-.65 1.5-1.16.4-.5.69-1.1.85-1.81h3.72a7.13 7.13 0 01-4.01 5.75c-1.16.57-2.5.86-4.06.86zm20.62 0c-1.93 0-3.6-.42-5-1.24a8.41 8.41 0 01-3.22-3.52 11.9 11.9 0 01-1.13-5.33c0-2.01.38-3.78 1.13-5.32a8.74 8.74 0 013.17-3.6 8.77 8.77 0 014.78-1.28c1.11 0 2.18.18 3.22.55a7.8 7.8 0 014.76 4.78c.48 1.24.72 2.76.72 4.54v1.35h-15.61v-2.86h11.86c0-1-.2-1.9-.61-2.67a4.65 4.65 0 00-4.31-2.53c-1.08 0-2.01.26-2.81.79-.8.52-1.41 1.2-1.85 2.04a5.9 5.9 0 00-.63 2.73v2.23c0 1.32.22 2.43.69 3.35a5 5 0 001.95 2.11 5.8 5.8 0 002.93.72c.72 0 1.38-.1 1.98-.3a4.1 4.1 0 002.54-2.5l3.62.65c-.29 1.07-.8 2-1.56 2.8a7.55 7.55 0 01-2.8 1.85c-1.11.44-2.39.66-3.82.66zm27.38-15.24l-3.46.61a4.11 4.11 0 00-.7-1.26c-.3-.4-.72-.73-1.25-.99a4.54 4.54 0 00-1.98-.38c-1.08 0-1.99.24-2.7.73-.73.47-1.1 1.1-1.1 1.85 0 .66.25 1.18.73 1.59.49.4 1.27.72 2.36.98l3.12.72c1.8.41 3.15 1.06 4.03 1.93.9.87 1.33 2 1.33 3.38 0 1.18-.34 2.23-1.02 3.15a6.7 6.7 0 01-2.82 2.15c-1.2.52-2.6.78-4.18.78-2.2 0-4-.47-5.39-1.41a5.94 5.94 0 01-2.55-4.03l3.7-.56c.22.96.7 1.7 1.41 2.19a4.9 4.9 0 002.8.73c1.25 0 2.25-.26 3-.78.75-.53 1.13-1.18 1.13-1.93a2 2 0 00-.7-1.55 4.52 4.52 0 00-2.08-.95l-3.32-.73c-1.83-.41-3.19-1.08-4.06-2a4.82 4.82 0 01-1.3-3.46c0-1.15.32-2.17.96-3.04a6.36 6.36 0 012.69-2.03 9.8 9.8 0 013.92-.74c2.13 0 3.8.46 5.01 1.38a6.42 6.42 0 012.42 3.67z" fill="#14120F"/></svg>